<svg width="1600" height="520" viewBox="0 0 1600 520" xmlns="http://www.w3.org/2000/svg">
  <defs>
    <linearGradient id="bgN" x1="0" y1="0" x2="0" y2="1">
      <stop offset="0%" stop-color="#070b14"/>
      <stop offset="100%" stop-color="#090d18"/>
    </linearGradient>
    <filter id="glowN" x="-50%" y="-50%" width="200%" height="200%">
      <feGaussianBlur stdDeviation="3" result="b"/>
      <feMerge><feMergeNode in="b"/><feMergeNode in="SourceGraphic"/></feMerge>
    </filter>
    <style>
      .title { fill:#7c8697; font:600 22px 'Inter','Segoe UI',sans-serif; letter-spacing:4px; }
      .box { fill:#0a101b; stroke:#263245; stroke-width:1.5; }
      .edge { stroke:#22e7df; stroke-width:3; }
      .edgeSoft { stroke:#18c9c4; stroke-width:2; }
      .main { fill:#f3f7ff; font:600 32px 'Inter','Segoe UI',sans-serif; }
      .sub { fill:#31ddd6; font:500 21px 'Inter','Segoe UI',sans-serif; }
      .formula { fill:#48e8e0; font:600 21px 'JetBrains Mono','Consolas',monospace; }
    </style>
  </defs>

  <rect width="1600" height="520" fill="url(#bgN)"/>
  <g opacity="0.18" stroke="#1e2a3d" stroke-width="1">
    <path d="M0 40H1600M0 80H1600M0 120H1600M0 160H1600M0 200H1600M0 240H1600M0 280H1600M0 320H1600M0 360H1600M0 400H1600M0 440H1600M0 480H1600"/>
    <path d="M40 0V520M80 0V520M120 0V520M160 0V520M200 0V520M240 0V520M280 0V520M320 0V520M360 0V520M400 0V520M440 0V520M480 0V520M520 0V520M560 0V520M600 0V520M640 0V520M680 0V520M720 0V520M760 0V520M800 0V520M840 0V520M880 0V520M920 0V520M960 0V520M1000 0V520M1040 0V520M1080 0V520M1120 0V520M1160 0V520M1200 0V520M1240 0V520M1280 0V520M1320 0V520M1360 0V520M1400 0V520M1440 0V520M1480 0V520M1520 0V520M1560 0V520"/>
  </g>

  <text x="56" y="60" class="title">FORMULA_EXEC :: NULLIFIER GENERATION</text>

  <g filter="url(#glowN)">
    <rect x="84" y="110" width="300" height="105" rx="12" class="box"/>
    <line x1="84" y1="120" x2="84" y2="205" class="edge"/>
    <text x="234" y="152" text-anchor="middle" class="main">sk_nf (secret)</text>
    <text x="234" y="187" text-anchor="middle" class="sub">User spending key</text>

    <rect x="420" y="110" width="300" height="105" rx="12" class="box"/>
    <line x1="420" y1="120" x2="420" y2="205" class="edge"/>
    <text x="570" y="152" text-anchor="middle" class="main">rho (entropy)</text>
    <text x="570" y="187" text-anchor="middle" class="sub">Note randomness linked to cm</text>

    <rect x="756" y="110" width="300" height="105" rx="12" class="box"/>
    <line x1="756" y1="120" x2="756" y2="205" class="edge"/>
    <text x="906" y="152" text-anchor="middle" class="main">domain</text>
    <text x="906" y="187" text-anchor="middle" class="sub">Context separator (e.g. chain_id)</text>
  </g>

  <g filter="url(#glowN)">
    <line x1="234" y1="215" x2="234" y2="262" class="edgeSoft"/>
    <line x1="570" y1="215" x2="570" y2="262" class="edgeSoft"/>
    <line x1="906" y1="215" x2="906" y2="262" class="edgeSoft"/>
    <line x1="200" y1="262" x2="940" y2="262" class="edge"/>
    <circle cx="560" cy="262" r="5" fill="#e8ffff"/>
    <circle cx="910" cy="262" r="5" fill="#e8ffff"/>
  </g>

  <g filter="url(#glowN)">
    <rect x="430" y="290" width="360" height="120" rx="12" class="box"/>
    <line x1="430" y1="300" x2="430" y2="400" class="edge"/>
    <text x="610" y="347" text-anchor="middle" class="main">PRF( ... )</text>
    <text x="610" y="381" text-anchor="middle" class="sub">Pseudo-random function eval</text>

    <line x1="790" y1="338" x2="1185" y2="338" class="edge"/>
    <text x="930" y="312" class="sub">evaluate_prf</text>
    <circle cx="1015" cy="338" r="5" fill="#e8ffff"/>
  </g>

  <g filter="url(#glowN)">
    <rect x="1185" y="255" width="360" height="150" rx="12" class="box"/>
    <line x1="1185" y1="265" x2="1185" y2="395" class="edge"/>
    <text x="1365" y="315" text-anchor="middle" class="main">nf (nullifier)</text>
    <text x="1365" y="350" text-anchor="middle" class="sub">Prevents double spends in shielded pool</text>
  </g>

  <text x="800" y="480" text-anchor="middle" class="formula">nf = PRF(sk_nf, rho, domain)</text>
</svg>
