<?xml version="1.0" encoding="UTF-8"?>
<svg version="1.1" xmlns="http://www.w3.org/2000/svg" width="1133" height="307">
<path d="M0 0 C33 0 66 0 100 0 C96.62471059 11.2509647 96.62471059 11.2509647 94.95385742 15.85644531 C94.57828705 16.89572678 94.20271667 17.93500824 93.81576538 19.00578308 C93.41636749 20.10215591 93.0169696 21.19852875 92.60546875 22.328125 C92.18173981 23.49785355 91.75801086 24.66758209 91.32144165 25.87275696 C90.18219052 29.01550036 89.04043447 32.15730893 87.89728165 35.29863358 C86.94090669 37.9279464 85.98653684 40.55798531 85.03209591 43.18800068 C78.29114677 61.76129328 71.49511633 80.31393487 64.64279175 98.84642029 C60.93659422 108.87208181 57.24908889 118.90461481 53.5625 128.9375 C53.00766434 130.44707779 53.00766434 130.44707779 52.44161987 131.9871521 C47.71143048 144.85910118 42.99782472 157.73701933 38.30078125 170.62109375 C38.05797298 171.28707706 37.81516472 171.95306038 37.56499863 172.63922501 C36.57749974 175.3477801 35.59004004 178.05634948 34.60258675 180.76492119 C33.86007149 182.8016191 33.11753772 184.83831027 32.375 186.875 C32.13152832 187.54284515 31.88805664 188.21069031 31.63720703 188.89877319 C22.86074005 212.97102482 13.97235287 237.00004419 5 261 C3.86438629 261.00808685 2.72877258 261.01617371 1.55874634 261.02450562 C-9.12465336 261.10186994 -19.80792417 261.18958431 -30.49115562 261.28752708 C-35.98398674 261.33754956 -41.47679805 261.38387893 -46.96972656 261.421875 C-52.26714611 261.45865279 -57.56440239 261.50499194 -62.86168289 261.55806351 C-64.88632987 261.57664749 -66.91101189 261.59174051 -68.93571091 261.60334396 C-71.76378988 261.62013813 -74.59149162 261.64915606 -77.41943359 261.68115234 C-78.68502357 261.68439262 -78.68502357 261.68439262 -79.97618103 261.68769836 C-84.46122878 261.56469205 -84.46122878 261.56469205 -88 264 C-88.33 263.34 -88.66 262.68 -89 262 C-89.99 261.67 -90.98 261.34 -92 261 C-92.7138465 258.6806656 -93.37335669 256.34439908 -94 254 C-95.03389015 251.94801824 -96.14370546 249.93296921 -97.31640625 247.95703125 C-97.6443367 247.39994476 -97.97226715 246.84285828 -98.31013489 246.26889038 C-99.38650456 244.44537318 -100.47424129 242.62894272 -101.5625 240.8125 C-102.33011986 239.51829924 -103.09720003 238.22377825 -103.86376953 236.92895508 C-109.65368539 227.17013075 -115.54104911 217.46971784 -121.45214844 207.78393555 C-127.98506429 197.07427004 -134.38328375 186.28604002 -140.75732422 175.48120117 C-141.14449112 174.82628189 -141.53165802 174.17136261 -141.93055725 173.49659729 C-142.97883841 171.72326511 -144.02525476 169.94883094 -145.0715332 168.17431641 C-146.40305357 165.98259242 -147.799834 163.82966808 -149.24682617 161.71240234 C-151 159 -151 159 -151 157 C-151.66 157 -152.32 157 -153 157 C-153.37427124 158.87220215 -153.37427124 158.87220215 -153.75610352 160.78222656 C-155.03360765 166.51032052 -156.93900507 171.96045358 -158.90234375 177.484375 C-159.2918924 178.59307953 -159.68144104 179.70178406 -160.08279419 180.84408569 C-161.362471 184.48125587 -162.64980346 188.11566215 -163.9375 191.75 C-164.6094751 193.65397621 -165.2806599 195.55822974 -165.95176983 197.46251106 C-172.99322524 217.44022133 -180.11829927 237.38830934 -187.29077148 257.31933594 C-193.2437065 273.86259362 -199.12025845 290.42981928 -205 307 C-237.01 307 -269.02 307 -302 307 C-298.62443433 295.74811444 -298.62443433 295.74811444 -297.21679688 291.7487793 C-296.89718491 290.83733658 -296.57757294 289.92589386 -296.24827576 288.98683167 C-295.90853226 288.0256694 -295.56878876 287.06450714 -295.21875 286.07421875 C-294.85326553 285.03478622 -294.48778107 283.9953537 -294.11122131 282.92442322 C-292.91004135 279.5112073 -291.70520382 276.09929699 -290.5 272.6875 C-289.64703509 270.26807309 -288.79408947 267.84863937 -287.94116211 265.42919922 C-280.24443121 243.61699393 -272.43942532 221.84388896 -264.61732483 200.0763855 C-260.0823939 187.45270619 -255.57217436 174.82021898 -251.0625 162.1875 C-250.2319542 159.86164629 -249.4013878 157.53579993 -248.57080078 155.20996094 C-244.71623233 144.41526652 -240.86390147 133.61977909 -237.01582336 122.82276917 C-235.24813774 117.86349904 -233.47944849 112.90458711 -231.71066284 107.94570923 C-230.88409111 105.62750829 -230.05799323 103.30913832 -229.23245239 100.99057007 C-222.92859494 83.2861438 -216.47014648 65.64585404 -210 48 C-180.3 47.67 -150.6 47.34 -120 47 C-119.67 46.34 -119.34 45.68 -119 45 C-117 45 -117 45 -115.5625 46.0625 C-113.79953714 48.24857395 -112.92752074 50.5231158 -111.85015869 53.09585571 C-110.50864775 56.10050698 -108.83392682 58.87599384 -107.1484375 61.69921875 C-106.77743927 62.32302933 -106.40644104 62.9468399 -106.02420044 63.58955383 C-104.8120908 65.62479757 -103.59369031 67.65619107 -102.375 69.6875 C-101.51731508 71.12419196 -100.6598972 72.56104336 -99.80273438 73.99804688 C-93.73863174 84.151745 -87.60676262 94.26383308 -81.45043945 104.36181641 C-74.90240766 115.11759483 -68.47550073 125.94418119 -62.06640625 136.78320312 C-61.67569443 137.44343979 -61.2849826 138.10367645 -60.88243103 138.78392029 C-60.15065196 140.02080789 -59.41961829 141.25813692 -58.68946838 142.49598694 C-57.18238925 145.04365891 -55.64267974 147.53598039 -54 150 C-47.92937784 134.00982963 -42.08067573 117.94991485 -36.37307739 101.82684326 C-34.09722627 95.39849786 -31.81420564 88.97270004 -29.53125 82.546875 C-29.30046312 81.89707546 -29.06967625 81.24727592 -28.83189583 80.57778549 C-23.2250917 64.79314852 -17.54936576 49.03344745 -11.86157227 33.27783203 C-11.5103833 32.30448914 -11.15919434 31.33114624 -10.79736328 30.32830811 C-10.16148206 28.56625303 -9.52508475 26.80438403 -8.88793945 25.04278564 C-5.88033705 16.71046141 -2.94859477 8.35435186 0 0 Z " fill="#FEFEFE" transform="translate(302,0)"/>
<path d="M0 0 C27.72 0 55.44 0 84 0 C82.74448813 5.64980341 81.6713091 10.32777246 79.6796875 15.59765625 C79.23093262 16.7988208 78.78217773 17.99998535 78.31982422 19.23754883 C78.08422791 19.86094147 77.84863159 20.48433411 77.605896 21.12661743 C76.34767137 24.4592053 75.11041243 27.79952472 73.875 31.140625 C73.5030098 32.14619194 73.5030098 32.14619194 73.12350464 33.17207336 C70.91311345 39.17742873 68.86554808 45.23080756 66.875 51.3125 C64.0513115 59.91361775 61.07950449 68.44485833 57.98999023 76.95385742 C54.12895022 87.60213998 50.34173497 98.27618776 46.5607605 108.953125 C45.82582879 111.028433 45.09059121 113.10363271 44.35501099 115.17871094 C40.57041461 125.85553538 36.80648232 136.53879069 33.09765625 147.2421875 C30.16596298 155.70001697 27.17539265 164.1355102 24.15625 172.5625 C20.6384426 182.38245833 17.15937986 192.21526793 13.71875 202.0625 C13.28747803 203.29605225 12.85620605 204.52960449 12.41186523 205.80053711 C10.65497648 210.82751121 8.89893232 215.85477676 7.14648438 220.88330078 C5.84007249 224.63152579 4.52943596 228.37826736 3.21875 232.125 C2.82296753 233.26332275 2.42718506 234.40164551 2.01940918 235.57446289 C1.65142212 236.62496826 1.28343506 237.67547363 0.90429688 238.7578125 C0.58360229 239.6770752 0.26290771 240.59633789 -0.06750488 241.54345703 C-1 244 -1 244 -3 248 C-31.05 248 -59.1 248 -88 248 C-85.98062262 240.59561629 -83.86764236 233.48104886 -81.25390625 226.30078125 C-80.89061218 225.29171219 -80.52731812 224.28264313 -80.15301514 223.24299622 C-79.3690582 221.06702695 -78.58318322 218.89174793 -77.79556274 216.71710205 C-76.53919177 213.24814379 -75.28783696 209.77741279 -74.0378418 206.30615234 C-72.72002768 202.64679229 -71.40188711 198.98755316 -70.08222961 195.32885742 C-65.56372322 182.80129245 -61.07628927 170.26272647 -56.59713745 157.72103882 C-55.34979626 154.22940207 -54.10090034 150.73832457 -52.85180664 147.24731445 C-48.74608947 135.76150125 -44.67004082 124.26743041 -40.72175598 112.72634888 C-38.92392478 107.50813633 -36.99257509 102.37115542 -34.89863586 97.26419067 C-33.4304471 93.56496228 -32.22021979 89.78666034 -31 86 C-29.19762994 80.49375947 -27.29156332 75.09975197 -25.0625 69.75 C-23.567007 65.87931225 -22.29275834 61.94227297 -21 58 C-19.19467209 52.49464361 -17.29165886 47.09998126 -15.0625 41.75 C-13.56700432 37.87930529 -12.29286686 33.94224325 -11 30 C-8.88533418 23.55665142 -6.57895999 17.27546932 -4 11 C-2.68 7.37 -1.36 3.74 0 0 Z " fill="#FEFEFE" transform="translate(96,53)"/>
<path d="M0 0 C33 0 66 0 100 0 C96.62471059 11.2509647 96.62471059 11.2509647 94.95385742 15.85644531 C94.57828705 16.89572678 94.20271667 17.93500824 93.81576538 19.00578308 C93.41636749 20.10215591 93.0169696 21.19852875 92.60546875 22.328125 C92.18173981 23.49785355 91.75801086 24.66758209 91.32144165 25.87275696 C90.18219052 29.01550036 89.04043447 32.15730893 87.89728165 35.29863358 C86.94090669 37.9279464 85.98653684 40.55798531 85.03209591 43.18800068 C78.29114677 61.76129328 71.49511633 80.31393487 64.64279175 98.84642029 C60.93659422 108.87208181 57.24908889 118.90461481 53.5625 128.9375 C53.00766434 130.44707779 53.00766434 130.44707779 52.44161987 131.9871521 C47.71143048 144.85910118 42.99782472 157.73701933 38.30078125 170.62109375 C38.05797298 171.28707706 37.81516472 171.95306038 37.56499863 172.63922501 C36.57749974 175.3477801 35.59004004 178.05634948 34.60258675 180.76492119 C33.86007149 182.8016191 33.11753772 184.83831027 32.375 186.875 C32.13152832 187.54284515 31.88805664 188.21069031 31.63720703 188.89877319 C22.86074005 212.97102482 13.97235287 237.00004419 5 261 C3.86438629 261.00808685 2.72877258 261.01617371 1.55874634 261.02450562 C-9.12465336 261.10186994 -19.80792417 261.18958431 -30.49115562 261.28752708 C-35.98398674 261.33754956 -41.47679805 261.38387893 -46.96972656 261.421875 C-52.26714611 261.45865279 -57.56440239 261.50499194 -62.86168289 261.55806351 C-64.88632987 261.57664749 -66.91101189 261.59174051 -68.93571091 261.60334396 C-71.76378988 261.62013813 -74.59149162 261.64915606 -77.41943359 261.68115234 C-78.68502357 261.68439262 -78.68502357 261.68439262 -79.97618103 261.68769836 C-84.46122878 261.56469205 -84.46122878 261.56469205 -88 264 C-88.33 263.34 -88.66 262.68 -89 262 C-89.99 261.67 -90.98 261.34 -92 261 C-92.7138465 258.6806656 -93.37335669 256.34439908 -94 254 C-95.03389015 251.94801824 -96.14370546 249.93296921 -97.31640625 247.95703125 C-97.6443367 247.39994476 -97.97226715 246.84285828 -98.31013489 246.26889038 C-99.38650456 244.44537318 -100.47424129 242.62894272 -101.5625 240.8125 C-102.33011986 239.51829924 -103.09720003 238.22377825 -103.86376953 236.92895508 C-109.65368539 227.17013075 -115.54104911 217.46971784 -121.45214844 207.78393555 C-127.98506429 197.07427004 -134.38328375 186.28604002 -140.75732422 175.48120117 C-141.14449112 174.82628189 -141.53165802 174.17136261 -141.93055725 173.49659729 C-142.97883841 171.72326511 -144.02525476 169.94883094 -145.0715332 168.17431641 C-146.40305357 165.98259242 -147.799834 163.82966808 -149.24682617 161.71240234 C-151 159 -151 159 -151 157 C-151.66 157 -152.32 157 -153 157 C-153.37427124 158.87220215 -153.37427124 158.87220215 -153.75610352 160.78222656 C-155.03360765 166.51032052 -156.93900507 171.96045358 -158.90234375 177.484375 C-159.2918924 178.59307953 -159.68144104 179.70178406 -160.08279419 180.84408569 C-161.362471 184.48125587 -162.64980346 188.11566215 -163.9375 191.75 C-164.6094751 193.65397621 -165.2806599 195.55822974 -165.95176983 197.46251106 C-172.99322524 217.44022133 -180.11829927 237.38830934 -187.29077148 257.31933594 C-193.2437065 273.86259362 -199.12025845 290.42981928 -205 307 C-237.01 307 -269.02 307 -302 307 C-298.62443433 295.74811444 -298.62443433 295.74811444 -297.21679688 291.7487793 C-296.89718491 290.83733658 -296.57757294 289.92589386 -296.24827576 288.98683167 C-295.90853226 288.0256694 -295.56878876 287.06450714 -295.21875 286.07421875 C-294.85326553 285.03478622 -294.48778107 283.9953537 -294.11122131 282.92442322 C-292.91004135 279.5112073 -291.70520382 276.09929699 -290.5 272.6875 C-289.64703509 270.26807309 -288.79408947 267.84863937 -287.94116211 265.42919922 C-280.24443121 243.61699393 -272.43942532 221.84388896 -264.61732483 200.0763855 C-260.0823939 187.45270619 -255.57217436 174.82021898 -251.0625 162.1875 C-250.2319542 159.86164629 -249.4013878 157.53579993 -248.57080078 155.20996094 C-244.71623233 144.41526652 -240.86390147 133.61977909 -237.01582336 122.82276917 C-235.24813774 117.86349904 -233.47944849 112.90458711 -231.71066284 107.94570923 C-230.88409111 105.62750829 -230.05799323 103.30913832 -229.23245239 100.99057007 C-222.92859494 83.2861438 -216.47014648 65.64585404 -210 48 C-180.3 47.67 -150.6 47.34 -120 47 C-119.67 46.34 -119.34 45.68 -119 45 C-117 45 -117 45 -115.5625 46.0625 C-113.79953714 48.24857395 -112.92752074 50.5231158 -111.85015869 53.09585571 C-110.50864775 56.10050698 -108.83392682 58.87599384 -107.1484375 61.69921875 C-106.77743927 62.32302933 -106.40644104 62.9468399 -106.02420044 63.58955383 C-104.8120908 65.62479757 -103.59369031 67.65619107 -102.375 69.6875 C-101.51731508 71.12419196 -100.6598972 72.56104336 -99.80273438 73.99804688 C-93.73863174 84.151745 -87.60676262 94.26383308 -81.45043945 104.36181641 C-74.90240766 115.11759483 -68.47550073 125.94418119 -62.06640625 136.78320312 C-61.67569443 137.44343979 -61.2849826 138.10367645 -60.88243103 138.78392029 C-60.15065196 140.02080789 -59.41961829 141.25813692 -58.68946838 142.49598694 C-57.18238925 145.04365891 -55.64267974 147.53598039 -54 150 C-47.92937784 134.00982963 -42.08067573 117.94991485 -36.37307739 101.82684326 C-34.09722627 95.39849786 -31.81420564 88.97270004 -29.53125 82.546875 C-29.30046312 81.89707546 -29.06967625 81.24727592 -28.83189583 80.57778549 C-23.2250917 64.79314852 -17.54936576 49.03344745 -11.86157227 33.27783203 C-11.5103833 32.30448914 -11.15919434 31.33114624 -10.79736328 30.32830811 C-10.16148206 28.56625303 -9.52508475 26.80438403 -8.88793945 25.04278564 C-5.88033705 16.71046141 -2.94859477 8.35435186 0 0 Z M4 6 C-3.49005117 25.95087408 -3.49005117 25.95087408 -10.6875 46 C-13.42513426 53.7792394 -16.16816431 61.55076025 -19.125 69.25 C-22.27823184 77.51806722 -25.01030551 85.92550413 -27.75439453 94.33691406 C-29.65830149 100.13760254 -31.67614158 105.83538264 -33.99072266 111.484375 C-35.92016232 116.29350569 -37.63205857 121.18339454 -39.375 126.0625 C-39.77146729 127.16811279 -40.16793457 128.27372559 -40.57641602 129.4128418 C-42.94514353 136.02592066 -45.29444646 142.64564634 -47.62719727 149.27148438 C-53.18831404 165.06078254 -58.76985078 180.84020575 -64.6875 196.5 C-71.98295087 215.83033986 -78.46296469 235.38889406 -85 255 C-56.62 255 -28.24 255 1 255 C4.30689672 247.06344788 7.4213785 239.22079493 10.25 231.125 C14.89429735 217.97361346 19.71406688 204.88985521 24.5625 191.8125 C29.37291087 178.83484101 34.16366578 165.85365546 38.81396484 152.81762695 C42.10239517 143.63602952 45.54562749 134.51378856 48.98327637 125.3873291 C51.97018423 117.45458843 54.92845994 109.5174009 57.71044922 101.51000977 C60.16836904 94.4582678 62.74088596 87.44837527 65.3125 80.4375 C65.54988892 79.79017914 65.78727783 79.14285828 66.03186035 78.47592163 C69.25303355 69.69834769 72.51569824 60.93697688 75.8125 52.1875 C79.0762888 43.52256137 82.23060813 34.82778782 85.27197266 26.08251953 C86.0732477 23.79047522 86.88527697 21.50241954 87.69921875 19.21484375 C87.97934814 18.42650146 88.25947754 17.63815918 88.5480957 16.82592773 C89.0886118 15.30555666 89.63007584 13.78552217 90.17260742 12.26586914 C91.44733599 9.20506896 91.44733599 9.20506896 92 6 C62.96 6 33.92 6 4 6 Z M-206 53 C-210.77023194 65.62852823 -210.77023194 65.62852823 -215.125 78.375 C-216.88532178 83.75629456 -218.7590744 89.02177857 -220.9375 94.25 C-222.432993 98.12068775 -223.70724166 102.05772703 -225 106 C-226.80532791 111.50535639 -228.70834114 116.90001874 -230.9375 122.25 C-232.71355804 126.84685611 -234.20753895 131.54078663 -235.71875 136.23046875 C-236.97503282 140.08807631 -238.32654284 143.86852195 -239.86621094 147.62280273 C-241.9870271 152.8917243 -243.8653027 158.22462515 -245.703125 163.59765625 C-249.5775024 174.82655136 -253.56289969 186.01301779 -257.5824585 197.19064331 C-259.63817522 202.90745728 -261.68995719 208.62568375 -263.7421875 214.34375 C-264.38119492 216.12379677 -264.38119492 216.12379677 -265.03311157 217.93980408 C-269.99553649 231.76696605 -274.93587552 245.60200208 -279.875 259.4375 C-280.29906128 260.62528046 -280.72312256 261.81306091 -281.16003418 263.03683472 C-281.57354126 264.19506744 -281.98704834 265.35330017 -282.41308594 266.54663086 C-282.81438721 267.67057755 -283.21568848 268.79452423 -283.62915039 269.95252991 C-284.39897256 272.10938097 -285.16835773 274.26638807 -285.93725586 276.42356873 C-287.50741878 280.82777558 -289.08028181 285.23074258 -290.67675781 289.62548828 C-290.91741974 290.2903273 -291.15808167 290.95516632 -291.40603638 291.64015198 C-292.01060454 293.30794299 -292.61863839 294.97447667 -293.22705078 296.64086914 C-294.1037852 298.9030097 -294.1037852 298.9030097 -294 301 C-265.95 301 -237.9 301 -209 301 C-203.09221291 285.83725687 -203.09221291 285.83725687 -197.625 270.53515625 C-197.25197754 269.45149277 -196.87895508 268.36782928 -196.49462891 267.25132751 C-195.32636207 263.85620485 -194.16276897 260.45950908 -193 257.0625 C-191.46096046 252.57331242 -189.91949543 248.08496973 -188.375 243.59765625 C-188.00201782 242.51396255 -187.62903564 241.43026886 -187.24475098 240.31373596 C-184.70316117 232.95921834 -182.06392512 225.64655406 -179.35046387 218.35391235 C-176.95723953 211.91810071 -174.70698806 205.43952766 -172.5 198.9375 C-168.26698071 186.56799374 -163.90458242 174.24688799 -159.5 161.9375 C-159.17609283 161.03205444 -158.85218567 160.12660889 -158.51846313 159.19372559 C-155.85388652 151.74691023 -153.18525477 144.30155121 -150.51318359 136.85742188 C-145.50574825 122.90567098 -140.57199545 108.93363199 -135.77075195 94.90942383 C-133.60818473 88.60775868 -131.41039272 82.32123355 -129.1484375 76.0546875 C-128.79812469 75.08266388 -128.79812469 75.08266388 -128.44073486 74.09100342 C-127.31606797 70.97289025 -126.18558438 67.85717112 -125.046875 64.74414062 C-124.64726562 63.64005859 -124.24765625 62.53597656 -123.8359375 61.3984375 C-123.48063965 60.42567871 -123.1253418 59.45291992 -122.75927734 58.45068359 C-121.85202788 55.94999898 -121.85202788 55.94999898 -122 53 C-149.72 53 -177.44 53 -206 53 Z " fill="#070606" transform="translate(302,0)"/>
<path d="M0 0 C0.66 0 1.32 0 2 0 C3.59716797 2.34472656 3.59716797 2.34472656 5.4921875 5.640625 C5.83410629 6.23003372 6.17602509 6.81944244 6.52830505 7.42671204 C7.65050112 9.36405826 8.76253707 11.30705145 9.875 13.25 C11.03763009 15.26106482 12.20295165 17.27055477 13.36830139 19.28004456 C14.14744446 20.62413283 14.92571146 21.96872933 15.70310974 23.31382751 C18.85303811 28.76236701 22.06209635 34.17325253 25.3125 39.5625 C25.79243408 40.35978516 26.27236816 41.15707031 26.7668457 41.97851562 C27.71446503 43.5519213 28.66261452 45.12500781 29.61132812 46.69775391 C32.40882031 51.33564971 35.20436607 55.97475153 37.98046875 60.62548828 C40.85725497 65.4441052 43.75873292 70.24618351 46.69044495 75.03152466 C48.46522643 77.93466475 50.22756088 80.84525509 51.98825073 83.75695801 C52.86738989 85.20457055 53.75173657 86.64903399 54.64138794 88.09020996 C55.89571992 90.12377805 57.13119866 92.16774123 58.36328125 94.21484375 C58.74595154 94.82551193 59.12862183 95.43618011 59.52288818 96.06535339 C61.09478975 98.71352501 62.03133439 100.48426594 61.84204102 103.59985352 C61.56416748 104.39190186 61.28629395 105.1839502 61 106 C60.72881348 106.81855469 60.45762695 107.63710937 60.17822266 108.48046875 C59.8435498 109.37378906 59.50887695 110.26710938 59.1640625 111.1875 C58.76815918 112.25379639 58.37225586 113.32009277 57.96435547 114.41870117 C57.52236816 115.60052979 57.08038086 116.7823584 56.625 118 C55.63720075 120.6614998 54.65390144 123.32464651 53.671875 125.98828125 C53.39773773 126.73161209 53.12360046 127.47494293 52.84115601 128.24079895 C48.44387078 140.19570424 44.16937536 152.19535571 39.875 164.1875 C39.44423157 165.38963135 39.01346313 166.5917627 38.56964111 167.83032227 C37.33496351 171.2760162 36.10089517 174.72192743 34.8671875 178.16796875 C34.30381683 179.74109077 34.30381683 179.74109077 33.72906494 181.34599304 C33.38389832 182.31100235 33.03873169 183.27601166 32.68310547 184.27026367 C32.38097137 185.114655 32.07883728 185.95904633 31.76754761 186.82902527 C31.16036163 188.54642417 30.57603245 190.27190266 30 192 C29.34 192 28.68 192 28 192 C26.84936523 190.42480469 26.84936523 190.42480469 25.55859375 188.171875 C25.06649414 187.32415527 24.57439453 186.47643555 24.06738281 185.60302734 C23.52952148 184.66152832 22.99166016 183.7200293 22.4375 182.75 C21.2555623 180.715183 20.07188518 178.68137564 18.88671875 176.6484375 C18.25556152 175.56401367 17.6244043 174.47958984 16.97412109 173.36230469 C13.62763781 167.66260549 10.18884576 162.01921392 6.75 156.375 C6.03085034 155.19307896 5.31177535 154.01111249 4.59277344 152.82910156 C3.13291408 150.4296534 1.67241038 148.03059911 0.21142578 145.63183594 C-6.20513597 135.09563654 -12.60527484 124.54946307 -19 114 C-19.62438965 112.97116699 -20.2487793 111.94233398 -20.89208984 110.88232422 C-22.59795925 108.06932205 -24.29972976 105.25388901 -26 102.4375 C-26.49862549 101.61636719 -26.99725098 100.79523438 -27.51098633 99.94921875 C-27.96111084 99.2015625 -28.41123535 98.45390625 -28.875 97.68359375 C-29.26429688 97.03962646 -29.65359375 96.39565918 -30.0546875 95.73217773 C-31.36778647 93.32607309 -32.14318059 91.66334594 -31.55371094 88.93237305 C-31.28333008 88.13355713 -31.01294922 87.33474121 -30.734375 86.51171875 C-30.42733643 85.59430908 -30.12029785 84.67689941 -29.80395508 83.73168945 C-29.4561499 82.72710693 -29.10834473 81.72252441 -28.75 80.6875 C-28.38865967 79.62426514 -28.02731934 78.56103027 -27.6550293 77.46557617 C-24.39673503 67.96387668 -20.93274807 58.53879754 -17.44506836 49.11938477 C-13.45413625 38.32747127 -9.61637853 27.48411985 -5.8125 16.625 C-5.520336 15.79102692 -5.228172 14.95705383 -4.92715454 14.09780884 C-3.28193841 9.39952559 -1.63969175 4.70021394 0 0 Z " fill="#A9252F" transform="translate(184,57)"/>
<path d="M0 0 C6.6 0 13.2 0 20 0 C25.99129956 6.82729485 25.99129956 6.82729485 27.58984375 10.265625 C30.29934114 15.73818097 33.61323485 20.7604389 36.9375 25.875 C38.14938368 27.78112453 39.35904154 29.68866614 40.56640625 31.59765625 C43.90193327 36.85444684 47.27812698 42.08371118 50.66894531 47.30493164 C55.54222024 54.81774948 60.35676887 62.36814741 65.16748047 69.92114258 C69.69318913 77.01073532 74.33226779 83.99840168 79 91 C79.33 60.97 79.66 30.94 80 0 C85.28 0 90.56 0 96 0 C96 39.6 96 79.2 96 120 C79 120 79 120 74.6640625 116.00390625 C73.58867958 114.22636841 72.57735793 112.40887579 71.625 110.5625 C70.78207397 109.12692749 70.78207397 109.12692749 69.92211914 107.66235352 C68.77910797 105.71468322 67.65932861 103.75318039 66.56396484 101.77832031 C64.36687852 97.87528528 61.91272213 94.16745341 59.4375 90.4375 C58.54861637 89.06259511 57.66192015 87.68627374 56.77734375 86.30859375 C53.70004596 81.52919678 50.60020892 76.76455551 47.5 72 C43.49231893 65.8382712 39.49119136 59.67242385 35.5 53.5 C29.34714797 43.99104687 23.17252607 34.49619396 17 25 C16.67 56.35 16.34 87.7 16 120 C10.72 120 5.44 120 0 120 C0 80.4 0 40.8 0 0 Z " fill="#FFFFFF" transform="translate(444,82)"/>
<path d="M0 0 C4.3142327 3.02976797 8.00233883 6.46684773 11.71875 10.20703125 C12.2034375 9.6759375 12.688125 9.14484375 13.1875 8.59765625 C19.79342727 1.63602521 26.34529968 -2.768505 36.1328125 -3.03125 C48.5582972 -3.297374 58.39574874 -2.88977723 67.89453125 6.01171875 C74.15132271 13.54130504 76.85158971 21.92001625 76.83227539 31.55786133 C76.83219986 32.81879105 76.83212433 34.07972076 76.83204651 35.37886047 C76.82694069 36.74476156 76.8217247 38.11066223 76.81640625 39.4765625 C76.8145397 40.88189137 76.81311692 42.2872209 76.81211853 43.69255066 C76.808312 47.3799725 76.79849774 51.06735455 76.78741455 54.75476074 C76.77716025 58.52204856 76.77261232 62.28934285 76.76757812 66.05664062 C76.7568737 73.44012435 76.7392921 80.82356714 76.71875 88.20703125 C71.43875 88.20703125 66.15875 88.20703125 60.71875 88.20703125 C60.7094043 86.43658447 60.70005859 84.6661377 60.69042969 82.84204102 C60.65476768 76.96258254 60.60088468 71.08343909 60.53484726 65.2042551 C60.4955024 61.64306989 60.46325109 58.08212712 60.44775391 54.52075195 C60.42957509 50.4170856 60.37956789 46.31432273 60.328125 42.2109375 C60.32689636 40.94496231 60.32566772 39.67898712 60.32440186 38.37464905 C60.18029158 29.60051917 58.88065655 23.22350714 53.40625 16.26953125 C48.34431876 12.38479332 42.96801746 11.6683013 36.71875 12.20703125 C31.83313486 13.2094247 28.52411745 14.45418776 24.84375 17.89453125 C19.55115595 26.14475138 19.25616036 33.28953859 19.20703125 42.89453125 C19.18010445 44.84190186 19.18010445 44.84190186 19.15263367 46.82861328 C19.10542401 50.25452705 19.07542826 53.68037633 19.04919434 57.10650635 C19.01924081 60.61280043 18.97276196 64.11887284 18.92773438 67.625 C18.84203247 74.48556495 18.77607163 81.34617102 18.71875 88.20703125 C13.43875 88.20703125 8.15875 88.20703125 2.71875 88.20703125 C2.689021 85.88514771 2.689021 85.88514771 2.65869141 83.51635742 C2.58219808 77.73316108 2.49355009 71.95020209 2.40136719 66.16723633 C2.36325723 63.67184155 2.32837415 61.17639519 2.296875 58.6809082 C2.25083186 55.07875221 2.19290404 51.47694582 2.1328125 47.875 C2.12126129 46.77246384 2.10971008 45.66992767 2.09780884 44.53398132 C1.90988516 34.50616265 1.64952231 24.08642883 -5.28125 16.20703125 C-10.2525528 12.53773632 -16.23411312 12.06959632 -22.28125 12.20703125 C-27.91993992 13.27381042 -31.63758834 15.73053264 -35.28125 20.20703125 C-38.53152571 25.77893246 -39.38754638 30.62698386 -39.48657227 37.00708008 C-39.50651749 38.14788528 -39.52646271 39.28869049 -39.54701233 40.46406555 C-39.57208107 42.29556404 -39.57208107 42.29556404 -39.59765625 44.1640625 C-39.61843735 45.42216232 -39.63921844 46.68026215 -39.66062927 47.97648621 C-39.71485465 51.30875411 -39.76512945 54.64103364 -39.81347656 57.97338867 C-39.86386084 61.3787968 -39.91945823 64.78411945 -39.97460938 68.18945312 C-40.08161703 74.86191298 -40.18293302 81.53443791 -40.28125 88.20703125 C-45.56125 88.20703125 -50.84125 88.20703125 -56.28125 88.20703125 C-56.28125 58.83703125 -56.28125 29.46703125 -56.28125 -0.79296875 C-51.33125 -0.79296875 -46.38125 -0.79296875 -41.28125 -0.79296875 C-40.95125 1.51703125 -40.62125 3.82703125 -40.28125 6.20703125 C-39.77335938 5.72492188 -39.26546875 5.2428125 -38.7421875 4.74609375 C-38.05382812 4.11445312 -37.36546875 3.4828125 -36.65625 2.83203125 C-35.98335937 2.20554687 -35.31046875 1.5790625 -34.6171875 0.93359375 C-26.14721877 -5.32681792 -9.04482061 -5.07873856 0 0 Z " fill="#FFFFFF" transform="translate(837.28125,113.79296875)"/>
<path d="M0 0 C5.28 0 10.56 0 16 0 C16 39.6 16 79.2 16 120 C11.05 120 6.1 120 1 120 C0.67 116.37 0.34 112.74 0 109 C-1.32 110.2375 -2.64 111.475 -4 112.75 C-13.28586248 120.9366015 -22.63783286 123.42953923 -35 122.875 C-47.99138832 121.62828007 -60.00366506 116.22995657 -68.4375 106.0625 C-75.90098502 96.00434738 -80.12518919 84.70440884 -79 72 C-76.7555874 57.2080839 -71.72964966 45.54412103 -59.65234375 36.1796875 C-48.12574454 28.72019728 -35.02283767 25.98410723 -21.54296875 28.6953125 C-13.66814542 30.87716111 -6.81867299 34.18132701 -1 40 C-0.67 26.8 -0.34 13.6 0 0 Z M-47 47 C-47.62519531 47.350625 -48.25039063 47.70125 -48.89453125 48.0625 C-55.74166748 52.35874234 -59.94040913 59.28828989 -62 67 C-62.78966229 75.86074545 -62.94832184 84.28371063 -58 92 C-57.5875 92.69480469 -57.175 93.38960937 -56.75 94.10546875 C-52.27970422 100.87441093 -45.65754764 105.1689235 -37.875 107.375 C-27.67026678 109.02092471 -19.35838722 107.21085526 -10.6875 101.375 C-4.64712604 96.48812661 -1.04309896 89.39230351 1 82 C2.15073996 70.70669154 0.56655477 62.03864434 -6.625 53.1875 C-12.32978399 47.15153941 -19.62693191 43.4387646 -27.91796875 42.76171875 C-35.2860856 42.59446162 -40.64395402 43.20385466 -47 47 Z " fill="#FFFFFF" transform="translate(746,82)"/>
<path d="M0 0 C3.55057845 2.80283435 6.82664518 5.77845975 10 9 C10.33 5.37 10.66 1.74 11 -2 C16.28 -2 21.56 -2 27 -2 C27 27.37 27 56.74 27 87 C21.72 87 16.44 87 11 87 C10.67 83.37 10.34 79.74 10 76 C9.05125 77.051875 8.1025 78.10375 7.125 79.1875 C-1.00646804 87.2374904 -10.98481503 89.92246496 -22.23046875 90.03125 C-36.59715586 89.34466997 -48.5145033 84.26528088 -58.375 73.625 C-67.91320408 61.55062604 -69.21642073 47.81600444 -68 33 C-66.4784187 24.90795398 -62.91118868 18.5167696 -58 12 C-57.13375 10.700625 -57.13375 10.700625 -56.25 9.375 C-43.21966464 -4.37924288 -16.90312307 -10.59225311 0 0 Z M-46.375 22.8125 C-51.91575529 30.96972307 -53.02195671 39.25657182 -52 49 C-50.10864998 57.63491349 -46.09630299 64.40692307 -38.828125 69.53125 C-30.08017383 74.71969 -20.9917599 76.42365163 -11.0625 73.9375 C-2.27599069 71.02216051 3.45894582 65.52455781 7.84765625 57.4765625 C11.96612417 48.62534671 12.11208444 39.66982582 9.03125 30.484375 C5.66000652 22.36274297 0.88090973 16.95312514 -7 13 C-21.37426923 7.19754269 -36.45506937 10.54697001 -46.375 22.8125 Z " fill="#FFFFFF" transform="translate(626,115)"/>
<path d="M0 0 C0.9168457 0.00644531 1.83369141 0.01289062 2.77832031 0.01953125 C15.22097462 0.35403487 22.85651481 4.87765623 31.625 13.5 C31.955 9.87 32.285 6.24 32.625 2.5 C37.575 2.5 42.525 2.5 47.625 2.5 C47.625 31.87 47.625 61.24 47.625 91.5 C42.675 91.5 37.725 91.5 32.625 91.5 C32.295 87.87 31.965 84.24 31.625 80.5 C30.305 81.7375 28.985 82.975 27.625 84.25 C18.26046385 92.49312202 8.61179994 94.98812431 -3.875 94.375 C-14.26387905 93.29386067 -23.18851695 90.0080165 -31.375 83.5 C-31.98988281 83.02175781 -32.60476563 82.54351562 -33.23828125 82.05078125 C-41.91637408 74.41175053 -46.73177926 62.016719 -47.5859375 50.70703125 C-48.04576422 37.03602923 -44.02806295 24.6965206 -35.1875 14.25 C-25.53766226 4.07293602 -13.85940659 -0.10262426 0 0 Z M-24.125 26.3125 C-30.05182694 34.70883816 -32.22445331 42.82060121 -30.75 53 C-28.62253588 62.96988086 -23.56047439 69.52263468 -15.375 75.5 C-8.4719575 79.47406231 -0.61998676 80.60250108 7.15234375 78.96875 C17.28336639 76.16557983 24.25179178 70.57886906 29.625 61.5 C32.92153801 53.3241097 33.07989746 43.4510769 30.59765625 35.00390625 C26.77922072 26.70066001 21.15731547 21.2019573 13.375 16.5625 C-1.76112152 12.27393224 -13.26065367 15.2012367 -24.125 26.3125 Z " fill="#FFFFFF" transform="translate(976.375,110.5)"/>
<path d="M0 0 C5.28 0 10.56 0 16 0 C16.33 12.54 16.66 25.08 17 38 C19.31 36.02 21.62 34.04 24 32 C35.31072315 26.95367736 46.98893134 26.67304341 58.61328125 30.96484375 C67.01551713 34.75158739 72.13712701 40.5630448 76.17578125 48.75 C79.17685491 56.9425044 79.26448168 64.46083438 79.1953125 73.125 C79.1915756 74.48119904 79.18873183 75.8374008 79.18673706 77.19360352 C79.1791538 80.73801315 79.15955195 84.28225508 79.1373291 87.82659912 C79.11675534 91.45338677 79.10771085 95.08020189 79.09765625 98.70703125 C79.07630019 105.80476208 79.0411623 112.90235234 79 120 C73.72 120 68.44 120 63 120 C62.9906543 118.33090576 62.98130859 116.66181152 62.97167969 114.94213867 C62.93595119 109.38597801 62.88202776 103.83018627 62.81609726 98.27430248 C62.776829 94.91047086 62.74454097 91.5468929 62.72900391 88.18286133 C62.70744222 84.30247739 62.66072075 80.42305944 62.609375 76.54296875 C62.60814636 75.35293747 62.60691772 74.16290619 62.60565186 72.93681335 C62.45165017 64.03070999 61.42916708 54.93371708 54.75 48.4375 C48.50424973 43.85904747 42.20857396 43.54458022 34.6796875 44.47265625 C29.72933934 45.44685013 25.80008298 46.88765773 22.46875 50.796875 C16.92434054 59.11348919 16.68059696 67.19163289 16.5859375 76.93359375 C16.56657135 78.16666763 16.5472052 79.39974152 16.5272522 80.67018127 C16.46767048 84.59255139 16.42115612 88.51495119 16.375 92.4375 C16.33786031 95.10354703 16.29774779 97.76953905 16.2578125 100.43554688 C16.16198628 106.95693264 16.07787581 113.47837617 16 120 C10.72 120 5.44 120 0 120 C0 80.4 0 40.8 0 0 Z " fill="#FFFFFF" transform="translate(1043,82)"/>
</svg>
